<svg width="202" height="35" viewBox="0 0 202 35" fill="none" xmlns="http://www.w3.org/2000/svg">
<path d="M0.212358 27V1.54545H17.3643V5.9826H5.59411V12.0479H16.4819V16.4851H5.59411V22.5629H17.4141V27H0.212358ZM20.8436 27V7.90909H26.1383V27H20.8436ZM23.5034 5.44815C22.7162 5.44815 22.0409 5.18714 21.4775 4.66513C20.9223 4.13482 20.6447 3.50095 20.6447 2.76349C20.6447 2.03433 20.9223 1.40874 21.4775 0.886719C22.0409 0.356415 22.7162 0.0912629 23.5034 0.0912629C24.2906 0.0912629 24.9617 0.356415 25.5169 0.886719C26.0803 1.40874 26.3621 2.03433 26.3621 2.76349C26.3621 3.50095 26.0803 4.13482 25.5169 4.66513C24.9617 5.18714 24.2906 5.44815 23.5034 5.44815ZM38.2806 34.5568C36.5654 34.5568 35.0946 34.3207 33.8683 33.8484C32.6502 33.3844 31.6808 32.7505 30.9599 31.9467C30.239 31.143 29.7709 30.2398 29.5554 29.2372L34.4525 28.5785C34.6016 28.9596 34.8377 29.3159 35.1609 29.6474C35.4841 29.9788 35.9108 30.244 36.4411 30.4428C36.9797 30.65 37.6343 30.7536 38.4049 30.7536C39.5566 30.7536 40.5054 30.4718 41.2511 29.9084C42.0051 29.3532 42.3821 28.421 42.3821 27.1119V23.6193H42.1584C41.9264 24.1496 41.5784 24.6509 41.1144 25.1232C40.6504 25.5955 40.0538 25.9808 39.3246 26.2791C38.5954 26.5774 37.7254 26.7266 36.7145 26.7266C35.281 26.7266 33.976 26.3951 32.7994 25.7322C31.6311 25.0611 30.6989 24.0378 30.0029 22.6623C29.3151 21.2785 28.9713 19.5302 28.9713 17.4173C28.9713 15.2546 29.3234 13.4483 30.0277 11.9982C30.732 10.5482 31.6684 9.46271 32.8367 8.74183C34.0133 8.02095 35.3018 7.66051 36.7021 7.66051C37.771 7.66051 38.6659 7.8428 39.3868 8.20739C40.1076 8.56368 40.6877 9.01113 41.1268 9.54972C41.5743 10.08 41.9181 10.602 42.1584 11.1158H42.3573V7.90909H47.6147V27.1864C47.6147 28.8105 47.217 30.1694 46.4216 31.2631C45.6261 32.3569 44.5241 33.1772 43.1154 33.7241C41.7151 34.2792 40.1035 34.5568 38.2806 34.5568ZM38.3924 22.7493C39.2459 22.7493 39.9668 22.538 40.5551 22.1154C41.1517 21.6845 41.6074 21.0714 41.9223 20.2759C42.2454 19.4722 42.407 18.511 42.407 17.3924C42.407 16.2738 42.2496 15.3043 41.9347 14.484C41.6198 13.6554 41.1641 13.0133 40.5675 12.5575C39.9709 12.1018 39.2459 11.8739 38.3924 11.8739C37.5224 11.8739 36.7891 12.1101 36.1925 12.5824C35.5959 13.0464 35.1443 13.6927 34.8377 14.5213C34.5312 15.3499 34.3779 16.3069 34.3779 17.3924C34.3779 18.4944 34.5312 19.4473 34.8377 20.2511C35.1526 21.0465 35.6042 21.6638 36.1925 22.103C36.7891 22.5339 37.5224 22.7493 38.3924 22.7493ZM59.8284 27.3729C57.8647 27.3729 56.1743 26.9751 54.7574 26.1797C53.3488 25.3759 52.2633 24.2408 51.501 22.7741C50.7387 21.2992 50.3576 19.555 50.3576 17.5415C50.3576 15.5778 50.7387 13.8543 51.501 12.3711C52.2633 10.8879 53.3364 9.73201 54.7201 8.90341C56.1122 8.07481 57.7445 7.66051 59.6172 7.66051C60.8766 7.66051 62.0491 7.86352 63.1346 8.26953C64.2283 8.66726 65.1812 9.26799 65.9932 10.0717C66.8135 10.8755 67.4516 11.8864 67.9073 13.1044C68.363 14.3142 68.5909 15.7311 68.5909 17.3551V18.8093H52.4705V15.5281H63.6069C63.6069 14.7657 63.4411 14.0904 63.1097 13.5021C62.7783 12.9138 62.3184 12.454 61.7301 12.1225C61.1501 11.7828 60.4748 11.6129 59.7042 11.6129C58.9004 11.6129 58.1878 11.7994 57.5664 12.1722C56.9532 12.5368 56.4726 13.0298 56.1246 13.6513C55.7766 14.2644 55.5985 14.948 55.5902 15.7021V18.8217C55.5902 19.7663 55.7642 20.5825 56.1122 21.2702C56.4685 21.958 56.9698 22.4883 57.6161 22.8612C58.2624 23.234 59.0288 23.4205 59.9154 23.4205C60.5038 23.4205 61.0423 23.3376 61.5312 23.1719C62.0201 23.0062 62.4385 22.7576 62.7865 22.4261C63.1346 22.0947 63.3997 21.6887 63.582 21.2081L68.479 21.5312C68.2304 22.7079 67.7208 23.7353 66.9503 24.6136C66.1879 25.4837 65.2019 26.1631 63.9922 26.652C62.7907 27.1326 61.4028 27.3729 59.8284 27.3729ZM76.6409 15.9631V27H71.3461V7.90909H76.3923V11.2773H76.616C77.0386 10.167 77.747 9.28871 78.7414 8.6424C79.7357 7.98781 80.9413 7.66051 82.3582 7.66051C83.684 7.66051 84.8399 7.95052 85.8259 8.53054C86.8119 9.11056 87.5784 9.93916 88.1252 11.0163C88.6721 12.0852 88.9456 13.3613 88.9456 14.8445V27H83.6508V15.7891C83.6591 14.6207 83.3608 13.7093 82.7559 13.0547C82.1511 12.3918 81.3183 12.0604 80.2577 12.0604C79.5451 12.0604 78.9154 12.2137 78.3685 12.5202C77.8299 12.8268 77.4073 13.2743 77.1007 13.8626C76.8024 14.4426 76.6492 15.1428 76.6409 15.9631ZM94.4321 27H91.2006L100.547 1.54545H103.729L113.076 27H109.844L102.237 5.57244H102.039L94.4321 27ZM95.6253 17.0568H108.651V19.7912H95.6253V17.0568ZM123.649 34.5568C122.232 34.5568 121.014 34.3745 119.995 34.0099C118.975 33.6536 118.126 33.1813 117.447 32.593C116.775 32.013 116.241 31.3916 115.843 30.7287L118.18 29.0881C118.445 29.4361 118.781 29.8338 119.187 30.2812C119.593 30.737 120.148 31.1306 120.852 31.462C121.565 31.8017 122.497 31.9716 123.649 31.9716C125.19 31.9716 126.462 31.5987 127.464 30.853C128.467 30.1072 128.968 28.9389 128.968 27.348V23.4702H128.72C128.504 23.8182 128.198 24.2491 127.8 24.7628C127.41 25.2682 126.847 25.7198 126.11 26.1175C125.38 26.507 124.394 26.7017 123.151 26.7017C121.61 26.7017 120.227 26.3371 119 25.608C117.782 24.8788 116.817 23.8182 116.104 22.4261C115.4 21.0341 115.048 19.3437 115.048 17.3551C115.048 15.3996 115.392 13.6969 116.079 12.2468C116.767 10.7885 117.724 9.66158 118.95 8.86612C120.177 8.06238 121.594 7.66051 123.201 7.66051C124.444 7.66051 125.43 7.86766 126.159 8.28196C126.897 8.68797 127.46 9.15199 127.85 9.674C128.247 10.1877 128.554 10.6103 128.769 10.9418H129.068V7.90909H131.901V27.5469C131.901 29.1875 131.529 30.5215 130.783 31.549C130.045 32.5848 129.051 33.3429 127.8 33.8235C126.557 34.3124 125.173 34.5568 123.649 34.5568ZM123.549 24.0668C124.726 24.0668 125.72 23.7975 126.532 23.2589C127.344 22.7203 127.961 21.9455 128.384 20.9347C128.807 19.9238 129.018 18.714 129.018 17.3054C129.018 15.9299 128.811 14.716 128.397 13.6637C127.982 12.6114 127.369 11.7869 126.557 11.1903C125.745 10.5937 124.742 10.2955 123.549 10.2955C122.306 10.2955 121.271 10.6103 120.442 11.2401C119.622 11.8698 119.004 12.715 118.59 13.7756C118.184 14.8362 117.981 16.0128 117.981 17.3054C117.981 18.6312 118.188 19.8036 118.602 20.8228C119.025 21.8337 119.647 22.6291 120.467 23.2092C121.295 23.7809 122.323 24.0668 123.549 24.0668ZM144.575 27.3977C142.736 27.3977 141.149 26.9917 139.815 26.1797C138.489 25.3594 137.466 24.2159 136.745 22.7493C136.032 21.2744 135.676 19.5592 135.676 17.6037C135.676 15.6482 136.032 13.9247 136.745 12.4332C137.466 10.9335 138.468 9.76515 139.753 8.92827C141.045 8.0831 142.553 7.66051 144.277 7.66051C145.271 7.66051 146.253 7.82623 147.222 8.15767C148.192 8.48911 149.074 9.0277 149.87 9.77344C150.665 10.5109 151.299 11.4886 151.771 12.7067C152.244 13.9247 152.48 15.4245 152.48 17.206V18.4489H137.764V15.9134H149.497C149.497 14.8362 149.281 13.875 148.851 13.0298C148.428 12.1847 147.823 11.5176 147.036 11.0288C146.257 10.5399 145.337 10.2955 144.277 10.2955C143.108 10.2955 142.098 10.5855 141.244 11.1655C140.399 11.7372 139.748 12.483 139.293 13.4027C138.837 14.3224 138.609 15.3085 138.609 16.3608V18.0511C138.609 19.4929 138.858 20.7151 139.355 21.7177C139.86 22.712 140.56 23.4702 141.455 23.9922C142.35 24.5059 143.39 24.7628 144.575 24.7628C145.346 24.7628 146.042 24.6551 146.663 24.4396C147.293 24.2159 147.836 23.8845 148.291 23.4453C148.747 22.9979 149.099 22.4427 149.348 21.7798L152.182 22.5753C151.883 23.5365 151.382 24.3816 150.678 25.1108C149.973 25.8317 149.103 26.3951 148.068 26.8011C147.032 27.1989 145.868 27.3977 144.575 27.3977ZM159.175 15.5156V27H156.242V7.90909H159.076V10.892H159.324C159.772 9.92259 160.451 9.1437 161.363 8.5554C162.274 7.95881 163.451 7.66051 164.892 7.66051C166.185 7.66051 167.316 7.92566 168.286 8.45597C169.255 8.97798 170.009 9.77344 170.548 10.8423C171.086 11.9029 171.356 13.2453 171.356 14.8693V27H168.422V15.0682C168.422 13.5684 168.033 12.4001 167.254 11.5632C166.475 10.718 165.406 10.2955 164.047 10.2955C163.111 10.2955 162.274 10.4985 161.537 10.9045C160.807 11.3105 160.232 11.9029 159.809 12.6818C159.386 13.4607 159.175 14.4053 159.175 15.5156ZM184.318 7.90909V10.3949H174.425V7.90909H184.318ZM177.308 3.33523H180.241V21.5312C180.241 22.3598 180.362 22.9813 180.602 23.3956C180.85 23.8016 181.165 24.075 181.546 24.2159C181.936 24.3485 182.346 24.4148 182.777 24.4148C183.1 24.4148 183.365 24.3982 183.572 24.3651C183.779 24.3236 183.945 24.2905 184.069 24.2656L184.666 26.9006C184.467 26.9751 184.19 27.0497 183.833 27.1243C183.477 27.2071 183.025 27.2486 182.479 27.2486C181.65 27.2486 180.838 27.0704 180.043 26.7141C179.255 26.3578 178.601 25.8151 178.079 25.0859C177.565 24.3568 177.308 23.437 177.308 22.3267V3.33523ZM201.211 12.1847L198.576 12.9304C198.411 12.4912 198.166 12.0645 197.843 11.6502C197.528 11.2276 197.097 10.8796 196.55 10.6062C196.004 10.3327 195.303 10.196 194.45 10.196C193.282 10.196 192.308 10.4653 191.529 11.0039C190.759 11.5342 190.373 12.2095 190.373 13.0298C190.373 13.759 190.638 14.3349 191.169 14.7575C191.699 15.18 192.528 15.5322 193.654 15.8139L196.488 16.5099C198.195 16.9242 199.467 17.5581 200.304 18.4116C201.141 19.2567 201.559 20.3464 201.559 21.6804C201.559 22.7741 201.244 23.7519 200.615 24.6136C199.993 25.4754 199.123 26.1548 198.005 26.652C196.886 27.1491 195.585 27.3977 194.102 27.3977C192.155 27.3977 190.543 26.9751 189.267 26.13C187.991 25.2848 187.183 24.0502 186.843 22.4261L189.627 21.7301C189.893 22.7576 190.394 23.5282 191.131 24.0419C191.877 24.5556 192.851 24.8125 194.052 24.8125C195.419 24.8125 196.505 24.5225 197.309 23.9425C198.121 23.3542 198.527 22.6499 198.527 21.8295C198.527 21.1667 198.295 20.6115 197.831 20.1641C197.367 19.7083 196.654 19.3686 195.693 19.1449L192.511 18.3991C190.763 17.9848 189.478 17.3427 188.658 16.4727C187.846 15.5943 187.44 14.4964 187.44 13.179C187.44 12.1018 187.742 11.1489 188.347 10.3203C188.96 9.49171 189.793 8.84126 190.846 8.36896C191.906 7.89666 193.108 7.66051 194.45 7.66051C196.339 7.66051 197.822 8.07481 198.9 8.90341C199.985 9.73201 200.756 10.8258 201.211 12.1847Z" fill="black"/>
</svg>
