<svg width="135" height="135" viewBox="0 0 135 135" fill="none" xmlns="http://www.w3.org/2000/svg">
<circle cx="67.5" cy="67.5" r="67.5" fill="#17265B"/>
<g opacity="0.3" filter="url(#filter0_i_21_24)">
<circle cx="67.5" cy="67.5" r="67.5" fill="#17265B"/>
</g>
<g opacity="0.3" filter="url(#filter1_i_21_24)">
<circle cx="67.5" cy="67.5" r="67.5" fill="#17265B"/>
</g>
<g filter="url(#filter2_d_21_24)">
<g clip-path="url(#clip0_21_24)">
<path d="M34.0875 69.0773C34.0875 58.2689 34.0875 47.4571 34.0875 36.6487C34.0875 35.6103 33.7033 35.2994 32.6319 35.2288C32.1842 35.2005 31.6238 35.0451 31.3419 34.7378C30.6863 34.0349 31.0176 33.2155 31.9763 33.0918C32.727 33 33.4954 33.0283 34.2531 33.0247C41.6335 33.0141 49.0103 33.0071 56.3907 33.0071C57.6208 33.0071 57.9979 33.3426 57.8886 34.2857C57.804 35.0098 57.3353 35.3701 56.6797 35.3559C55.5096 35.3277 55.3369 35.9988 55.3369 36.9525C55.358 45.14 55.3615 53.331 55.3686 61.5185C55.3686 61.8505 55.3827 62.1826 55.3686 62.5146C55.3263 63.3164 55.6858 63.6307 56.4929 63.6272C63.905 63.6131 71.3171 63.6307 78.7291 63.6272C79.9134 63.6272 80.2412 63.1998 80.2024 62.0519C80.1495 60.4624 80.1495 58.8694 80.1495 57.2799C80.1495 50.417 80.1636 43.554 80.1672 36.6876C80.1672 35.6385 79.7583 35.3312 78.7291 35.2535C78.2533 35.2182 77.6577 34.9215 77.3722 34.5506C76.8224 33.8301 77.2312 33.0989 78.1582 33.0494C79.1803 32.9929 80.2094 33.0071 81.2351 33.0071C88.1819 33.0071 95.1323 33.0071 102.079 33.0071C102.312 33.0071 102.541 33.0106 102.773 33.0177C103.485 33.0389 104.007 33.2614 104 34.1056C103.989 34.9427 103.5 35.2924 102.745 35.3453C101.258 35.4478 101.321 35.4372 101.328 36.9913C101.364 43.8225 101.367 50.6536 101.367 57.4848C101.367 71.9101 101.36 86.3354 101.353 100.757C101.353 102.385 100.849 102.866 99.2172 102.873C92.7004 102.908 86.1835 102.961 79.6667 102.986C78.2146 102.993 76.7625 102.901 75.3104 102.873C74.6195 102.859 74.2812 102.491 74.2001 101.849C74.1578 101.52 74.1614 101.188 74.1614 100.856C74.1719 93.7281 74.179 86.5967 74.2037 79.4689C74.2142 76.8339 73.2591 74.6298 71.0351 73.2311C67.8947 71.2566 64.5711 72.0726 62.3894 74.817C61.3321 76.1487 61.1488 77.9041 61.1594 79.6314C61.2017 86.9923 61.2193 94.3533 61.2334 101.714C61.2334 102.65 60.8105 102.982 59.6297 102.993C57.0498 103.011 54.4663 102.996 51.8863 102.996C46.596 102.996 41.3022 102.996 36.0119 102.996C34.373 102.996 34.084 102.717 34.0804 101.11C34.0804 90.4326 34.0804 79.755 34.0804 69.0773H34.091H34.0875ZM90.0323 35.2782C90.0323 35.2429 90.0323 35.3136 90.0323 35.2782C88.0832 35.2782 86.1307 35.3842 84.1816 35.3524C83.2441 35.3383 82.8 35.7162 82.8035 36.6628C82.8211 39.976 82.8634 43.2856 82.8528 46.5987C82.8387 50.4064 82.7436 54.2176 82.7401 58.0252C82.726 68.2932 82.7436 78.5611 82.7471 88.829C82.7471 92.174 82.7471 95.5189 82.726 98.8639C82.7189 100.185 83.2123 100.577 84.527 100.563C88.7247 100.513 92.9259 100.513 97.1236 100.552C98.3114 100.563 98.7872 100.238 98.7872 99.0475C98.7802 95.9322 98.7626 92.8168 98.7626 89.698C98.7626 72.0302 98.7626 54.3659 98.7696 36.6982C98.7696 35.8469 98.1951 35.2464 97.3739 35.2464C94.9279 35.2535 92.4854 35.2747 90.0393 35.2747L90.0323 35.2782ZM36.6815 67.8022H36.6921C36.6921 74.3685 36.6921 80.9312 36.6921 87.4974C36.6921 91.3439 36.6745 95.1869 36.6639 99.0334C36.6639 100.001 37.1397 100.556 37.9539 100.556C42.3842 100.559 46.8146 100.573 51.2449 100.58C52.1718 100.58 52.7181 99.9977 52.6653 99.0758C52.63 98.4824 52.5736 97.8855 52.5736 97.2885C52.5701 91.6866 52.5772 86.081 52.5807 80.4791C52.5807 66.354 52.5384 52.2325 52.623 38.1075C52.6371 35.4584 52.5772 35.2288 49.821 35.3383C45.9581 35.4902 42.0846 35.3771 38.2147 35.3736C36.9811 35.3736 36.6886 35.6597 36.6886 36.8712C36.6886 47.1816 36.6886 57.4919 36.6886 67.8057L36.6815 67.8022ZM55.3721 83.22C55.3721 87.5292 55.3721 91.842 55.3721 96.1512C55.3721 97.2461 55.3792 98.3411 55.3686 99.4325C55.3686 99.7398 55.4109 100.097 55.6541 100.309C55.8127 100.446 56.0136 100.457 56.2145 100.482C56.4436 100.506 56.6727 100.513 56.9017 100.535C57.0216 100.545 57.1414 100.552 57.2613 100.552C57.3811 100.552 57.4939 100.528 57.6102 100.528C57.9098 100.482 58.2869 100.33 58.4349 100.04C58.6006 99.7928 58.664 99.4891 58.664 99.1959C58.664 98.5354 58.6605 97.8749 58.6605 97.2144C58.657 91.2804 58.6605 85.3464 58.6429 79.4088C58.6358 77.5509 58.9107 75.7283 59.9258 74.1812C61.4977 71.7865 63.5349 69.9815 66.6118 69.812C69.2764 69.6636 71.7471 70.0416 73.6256 72.1856C75.2011 73.987 76.7343 75.7954 76.7131 78.4128C76.6602 85.4382 76.6391 92.4636 76.6144 99.4926C76.6144 100.174 76.8294 100.672 77.6683 100.559C77.9608 100.52 78.2639 100.58 78.56 100.566C79.8852 100.503 80.1531 100.185 80.1531 98.8674C80.1495 88.7902 80.146 78.7095 80.1672 68.6323C80.1707 66.1668 80.213 66.1809 77.7317 66.1845C70.6862 66.1915 63.6371 66.2057 56.5916 66.1598C55.5836 66.1527 55.3545 66.4882 55.3615 67.4137C55.3933 72.6836 55.3756 77.9571 55.3792 83.2271L55.3721 83.22Z" fill="white"/>
<path d="M46.5008 38.775H42.3983C41.1612 38.775 40.1461 39.7887 40.1461 41.0321V45.1435C40.1461 46.3833 41.1577 47.4005 42.3983 47.4005H46.5008C47.7379 47.4005 48.753 46.3868 48.753 45.1435V41.0321C48.753 39.7923 47.7415 38.775 46.5008 38.775ZM46.9203 43.3068C46.9203 44.5465 45.9087 45.5638 44.6681 45.5638H44.231C42.9939 45.5638 41.9789 44.5501 41.9789 43.3068V42.8688C41.9789 41.629 42.9904 40.6117 44.231 40.6117H44.6681C45.9052 40.6117 46.9203 41.6255 46.9203 42.8688V43.3068Z" fill="white"/>
<path d="M46.5008 51.2152H42.3983C41.1612 51.2152 40.1461 52.2289 40.1461 53.4722V57.5837C40.1461 58.8234 41.1577 59.8407 42.3983 59.8407H46.5008C47.7379 59.8407 48.753 58.827 48.753 57.5837V53.4722C48.753 52.2325 47.7415 51.2152 46.5008 51.2152ZM46.9203 55.747C46.9203 56.9867 45.9087 58.004 44.6681 58.004H44.231C42.9939 58.004 41.9789 56.9903 41.9789 55.747V55.309C41.9789 54.0692 42.9904 53.0519 44.231 53.0519H44.6681C45.9052 53.0519 46.9203 54.0656 46.9203 55.309V55.747Z" fill="white"/>
<path d="M46.5008 63.6555H42.3983C41.1612 63.6555 40.1461 64.6692 40.1461 65.9126V70.024C40.1461 71.2638 41.1577 72.281 42.3983 72.281H46.5008C47.7379 72.281 48.753 71.2673 48.753 70.024V65.9126C48.753 64.6728 47.7415 63.6555 46.5008 63.6555ZM46.9203 68.1873C46.9203 69.427 45.9087 70.4443 44.6681 70.4443H44.231C42.9939 70.4443 41.9789 69.4306 41.9789 68.1873V67.7493C41.9789 66.5095 42.9904 65.4922 44.231 65.4922H44.6681C45.9052 65.4922 46.9203 66.506 46.9203 67.7493V68.1873Z" fill="white"/>
<path d="M46.5008 76.0957H42.3983C41.1612 76.0957 40.1461 77.1094 40.1461 78.3527V82.4642C40.1461 83.7039 41.1577 84.7212 42.3983 84.7212H46.5008C47.7379 84.7212 48.753 83.7075 48.753 82.4642V78.3527C48.753 77.113 47.7415 76.0957 46.5008 76.0957ZM46.9203 80.6274C46.9203 81.8672 45.9087 82.8845 44.6681 82.8845H44.231C42.9939 82.8845 41.9789 81.8708 41.9789 80.6274V80.1895C41.9789 78.9497 42.9904 77.9324 44.231 77.9324H44.6681C45.9052 77.9324 46.9203 78.9461 46.9203 80.1895V80.6274Z" fill="white"/>
<path d="M46.5008 88.5394H42.3983C41.1612 88.5394 40.1461 89.5532 40.1461 90.7965V94.9079C40.1461 96.1477 41.1577 97.1649 42.3983 97.1649H46.5008C47.7379 97.1649 48.753 96.1512 48.753 94.9079V90.7965C48.753 89.5567 47.7415 88.5394 46.5008 88.5394ZM46.9203 93.0676C46.9203 94.3074 45.9087 95.3247 44.6681 95.3247H44.231C42.9939 95.3247 41.9789 94.3109 41.9789 93.0676V92.6297C41.9789 91.3899 42.9904 90.3726 44.231 90.3726H44.6681C45.9052 90.3726 46.9203 91.3863 46.9203 92.6297V93.0676Z" fill="white"/>
<path d="M92.4784 38.775H88.3758C87.1387 38.775 86.1237 39.7887 86.1237 41.0321V45.1435C86.1237 46.3833 87.1352 47.4005 88.3758 47.4005H92.4784C93.7155 47.4005 94.7306 46.3868 94.7306 45.1435V41.0321C94.7306 39.7923 93.719 38.775 92.4784 38.775ZM92.8943 43.3068C92.8943 44.5465 91.8827 45.5638 90.6421 45.5638H90.2051C88.968 45.5638 87.9529 44.5501 87.9529 43.3068V42.8688C87.9529 41.629 88.9644 40.6117 90.2051 40.6117H90.6421C91.8792 40.6117 92.8943 41.6255 92.8943 42.8688V43.3068Z" fill="white"/>
<path d="M92.4784 51.2152H88.3758C87.1387 51.2152 86.1237 52.2289 86.1237 53.4722V57.5837C86.1237 58.8234 87.1352 59.8407 88.3758 59.8407H92.4784C93.7155 59.8407 94.7306 58.827 94.7306 57.5837V53.4722C94.7306 52.2325 93.719 51.2152 92.4784 51.2152ZM92.8943 55.747C92.8943 56.9867 91.8827 58.004 90.6421 58.004H90.2051C88.968 58.004 87.9529 56.9903 87.9529 55.747V55.309C87.9529 54.0692 88.9644 53.0519 90.2051 53.0519H90.6421C91.8792 53.0519 92.8943 54.0656 92.8943 55.309V55.747Z" fill="white"/>
<path d="M92.4784 63.6555H88.3758C87.1387 63.6555 86.1237 64.6692 86.1237 65.9126V70.024C86.1237 71.2638 87.1352 72.281 88.3758 72.281H92.4784C93.7155 72.281 94.7306 71.2673 94.7306 70.024V65.9126C94.7306 64.6728 93.719 63.6555 92.4784 63.6555ZM92.8943 68.1873C92.8943 69.427 91.8827 70.4443 90.6421 70.4443H90.2051C88.968 70.4443 87.9529 69.4306 87.9529 68.1873V67.7493C87.9529 66.5095 88.9644 65.4922 90.2051 65.4922H90.6421C91.8792 65.4922 92.8943 66.506 92.8943 67.7493V68.1873Z" fill="white"/>
<path d="M92.4784 76.0957H88.3758C87.1387 76.0957 86.1237 77.1094 86.1237 78.3527V82.4642C86.1237 83.7039 87.1352 84.7212 88.3758 84.7212H92.4784C93.7155 84.7212 94.7306 83.7075 94.7306 82.4642V78.3527C94.7306 77.113 93.719 76.0957 92.4784 76.0957ZM92.8943 80.6274C92.8943 81.8672 91.8827 82.8845 90.6421 82.8845H90.2051C88.968 82.8845 87.9529 81.8708 87.9529 80.6274V80.1895C87.9529 78.9497 88.9644 77.9324 90.2051 77.9324H90.6421C91.8792 77.9324 92.8943 78.9461 92.8943 80.1895V80.6274Z" fill="white"/>
<path d="M92.4784 88.5394H88.3758C87.1387 88.5394 86.1237 89.5532 86.1237 90.7965V94.9079C86.1237 96.1477 87.1352 97.1649 88.3758 97.1649H92.4784C93.7155 97.1649 94.7306 96.1512 94.7306 94.9079V90.7965C94.7306 89.5567 93.719 88.5394 92.4784 88.5394ZM92.8943 93.0676C92.8943 94.3074 91.8827 95.3247 90.6421 95.3247H90.2051C88.968 95.3247 87.9529 94.3109 87.9529 93.0676V92.6297C87.9529 91.3899 88.9644 90.3726 90.2051 90.3726H90.6421C91.8792 90.3726 92.8943 91.3863 92.8943 92.6297V93.0676Z" fill="white"/>
</g>
</g>
<defs>
<filter id="filter0_i_21_24" x="-10" y="-10" width="145" height="145" filterUnits="userSpaceOnUse" color-interpolation-filters="sRGB">
<feFlood flood-opacity="0" result="BackgroundImageFix"/>
<feBlend mode="normal" in="SourceGraphic" in2="BackgroundImageFix" result="shape"/>
<feColorMatrix in="SourceAlpha" type="matrix" values="0 0 0 0 0 0 0 0 0 0 0 0 0 0 0 0 0 0 127 0" result="hardAlpha"/>
<feOffset dx="-10" dy="-10"/>
<feGaussianBlur stdDeviation="10"/>
<feComposite in2="hardAlpha" operator="arithmetic" k2="-1" k3="1"/>
<feColorMatrix type="matrix" values="0 0 0 0 1 0 0 0 0 1 0 0 0 0 1 0 0 0 0.5 0"/>
<feBlend mode="normal" in2="shape" result="effect1_innerShadow_21_24"/>
</filter>
<filter id="filter1_i_21_24" x="0" y="0" width="145" height="145" filterUnits="userSpaceOnUse" color-interpolation-filters="sRGB">
<feFlood flood-opacity="0" result="BackgroundImageFix"/>
<feBlend mode="normal" in="SourceGraphic" in2="BackgroundImageFix" result="shape"/>
<feColorMatrix in="SourceAlpha" type="matrix" values="0 0 0 0 0 0 0 0 0 0 0 0 0 0 0 0 0 0 127 0" result="hardAlpha"/>
<feOffset dx="10" dy="10"/>
<feGaussianBlur stdDeviation="10"/>
<feComposite in2="hardAlpha" operator="arithmetic" k2="-1" k3="1"/>
<feColorMatrix type="matrix" values="0 0 0 0 0 0 0 0 0 0 0 0 0 0 0 0 0 0 0.5 0"/>
<feBlend mode="normal" in2="shape" result="effect1_innerShadow_21_24"/>
</filter>
<filter id="filter2_d_21_24" x="21" y="27" width="93" height="90" filterUnits="userSpaceOnUse" color-interpolation-filters="sRGB">
<feFlood flood-opacity="0" result="BackgroundImageFix"/>
<feColorMatrix in="SourceAlpha" type="matrix" values="0 0 0 0 0 0 0 0 0 0 0 0 0 0 0 0 0 0 127 0" result="hardAlpha"/>
<feOffset dy="4"/>
<feGaussianBlur stdDeviation="5"/>
<feComposite in2="hardAlpha" operator="out"/>
<feColorMatrix type="matrix" values="0 0 0 0 0 0 0 0 0 0 0 0 0 0 0 0 0 0 0.25 0"/>
<feBlend mode="normal" in2="BackgroundImageFix" result="effect1_dropShadow_21_24"/>
<feBlend mode="normal" in="SourceGraphic" in2="effect1_dropShadow_21_24" result="shape"/>
</filter>
<clipPath id="clip0_21_24">
<rect width="73" height="70" fill="white" transform="translate(31 33)"/>
</clipPath>
</defs>
</svg>
